<svg xmlns="http://www.w3.org/2000/svg" viewBox="0 0 168.38 125.73"><defs><style>.cls-1{fill:#fff;}</style></defs><g id="레이어_2" data-name="레이어 2"><g id="레이어_1-2" data-name="레이어 1"><path class="cls-1" d="M0,101.75a32.08,32.08,0,0,1,.54-6.11,12.09,12.09,0,0,1,2.09-4.89A10.49,10.49,0,0,1,7,87.42a17.91,17.91,0,0,1,7.11-1.22H20.7V39.1H14.83a16.42,16.42,0,0,1-7.1-1.33A11.19,11.19,0,0,1,3.4,34.33a12.09,12.09,0,0,1-2.09-4.89A28.41,28.41,0,0,1,.77,24a32.19,32.19,0,0,1,.54-6.12A12.11,12.11,0,0,1,3.4,13,10.3,10.3,0,0,1,7.73,9.67a17.65,17.65,0,0,1,7.1-1.22h87.28a17.73,17.73,0,0,1,7.11,1.22A10.36,10.36,0,0,1,113.55,13a12.23,12.23,0,0,1,2.08,4.88,32.19,32.19,0,0,1,.54,6.12,28.41,28.41,0,0,1-.54,5.44,12.22,12.22,0,0,1-2.08,4.89,11.27,11.27,0,0,1-4.33,3.44,16.49,16.49,0,0,1-7.11,1.33H96.24V86.2h6.65a17.82,17.82,0,0,1,7.1,1.22,10.49,10.49,0,0,1,4.32,3.33,12,12,0,0,1,2.09,4.89,32.08,32.08,0,0,1,.54,6.11,28.49,28.49,0,0,1-.54,5.44,12,12,0,0,1-2.09,4.89,11.34,11.34,0,0,1-4.32,3.45,16.57,16.57,0,0,1-7.1,1.32H14.06A16.65,16.65,0,0,1,7,115.53a11.34,11.34,0,0,1-4.32-3.45,12.09,12.09,0,0,1-2.09-4.89A28.49,28.49,0,0,1,0,101.75ZM45.73,86.2H71.22V39.1H45.73Z"/><path class="cls-1" d="M143.1,57.47q11.76,0,18.53,6.52t6.75,17.41q0,3.19-.12,7.44A42.35,42.35,0,0,1,166.88,98a44.84,44.84,0,0,1-4.13,10.24,47.71,47.71,0,0,1-8.13,10.64,26.12,26.12,0,0,1-5.76,4.12,24.16,24.16,0,0,1-6.51,2.39,15.58,15.58,0,0,1-6.38,0,11,11,0,0,1-5.39-2.79,8.6,8.6,0,0,1-2.87-6.65,8,8,0,0,1,2.37-5.85,17.39,17.39,0,0,0,4.26-5.71A24.83,24.83,0,0,0,136.59,96a16.08,16.08,0,0,1-6.38-1.33A20,20,0,0,1,124.45,91a18.82,18.82,0,0,1-4.25-5.72,16.31,16.31,0,0,1-1.63-7.31,20.89,20.89,0,0,1,5.51-14.22Q129.57,57.48,143.1,57.47Z"/><path class="cls-1" d="M120.49,26.12q0-12.75,6.58-19.44A22,22,0,0,1,143.36,0a22.37,22.37,0,0,1,16.41,6.68q6.69,6.69,6.7,19.44t-6.7,19.3A22.64,22.64,0,0,1,143.36,52a22.24,22.24,0,0,1-16.29-6.53Q120.49,38.88,120.49,26.12Z"/></g></g></svg>