<svg xmlns="http://www.w3.org/2000/svg" viewBox="0 0 130 130"><defs><style>.cls-1{fill:#67bc79;}</style></defs><g id="레이어_2" data-name="레이어 2"><g id="레이어_1-2" data-name="레이어 1"><path class="cls-1" d="M0,105.2a43.74,43.74,0,0,1,.42-6.31A14.68,14.68,0,0,1,2,93.83a8.83,8.83,0,0,1,3.34-3.44,10.72,10.72,0,0,1,5.49-1.26H16V40.43H11.45A10,10,0,0,1,6,39.05a9.55,9.55,0,0,1-3.33-3.56A14.92,14.92,0,0,1,1,30.44,38.79,38.79,0,0,1,.6,24.81,44,44,0,0,1,1,18.49a15,15,0,0,1,1.62-5A8.81,8.81,0,0,1,6,10a10.67,10.67,0,0,1,5.49-1.27H78.84A10.61,10.61,0,0,1,84.32,10a8.83,8.83,0,0,1,3.34,3.44,15.21,15.21,0,0,1,1.61,5,43.88,43.88,0,0,1,.42,6.32,38.82,38.82,0,0,1-.42,5.63,15.14,15.14,0,0,1-1.61,5.05,9.58,9.58,0,0,1-3.34,3.56,10,10,0,0,1-5.48,1.38H74.3v48.7h5.13a10.72,10.72,0,0,1,5.49,1.26,8.9,8.9,0,0,1,3.34,3.44,15.12,15.12,0,0,1,1.61,5.06,45.29,45.29,0,0,1,.41,6.31,40.36,40.36,0,0,1-.41,5.63,15.12,15.12,0,0,1-1.61,5.06,9.9,9.9,0,0,1-3.34,3.56,10.06,10.06,0,0,1-5.49,1.37H10.86a10.06,10.06,0,0,1-5.49-1.37A9.81,9.81,0,0,1,2,115.89a14.68,14.68,0,0,1-1.61-5.06A38.92,38.92,0,0,1,0,105.2ZM35.31,89.13H55V40.43H35.31Z"/><path class="cls-1" d="M110.48,59.42q9.08,0,14.3,6.74t5.22,18q0,3.3-.1,7.7a57.74,57.74,0,0,1-1.06,9.48,57,57,0,0,1-3.19,10.59,50.14,50.14,0,0,1-6.28,11,21.13,21.13,0,0,1-4.45,4.26,15.85,15.85,0,0,1-5,2.48,9.17,9.17,0,0,1-4.93,0,8,8,0,0,1-4.15-2.89,10.54,10.54,0,0,1-2.23-6.87,10,10,0,0,1,1.84-6.05,18.57,18.57,0,0,0,3.29-5.91,32.92,32.92,0,0,0,1.74-8.66,9.81,9.81,0,0,1-4.93-1.37,16,16,0,0,1-4.45-3.85,20,20,0,0,1-3.28-5.91,21.8,21.8,0,0,1-1.26-7.56,26.19,26.19,0,0,1,4.25-14.71Q100,59.43,110.48,59.42Z"/><path class="cls-1" d="M93,27q0-13.19,5.08-20.1T110.68,0q7.5,0,12.67,6.91T128.52,27q0,13.2-5.17,20t-12.67,6.75q-7.49,0-12.58-6.75T93,27Z"/></g></g></svg>